<svg width="16" height="16" viewBox="0 0 16 16" fill="currentColor" xmlns="http://www.w3.org/2000/svg">
<path fill-rule="evenodd" clip-rule="evenodd" d="M8 13C10.7614 13 13 10.7614 13 8C13 5.23858 10.7614 3 8 3C5.23858 3 3 5.23858 3 8C3 10.7614 5.23858 13 8 13ZM8 14C11.3137 14 14 11.3137 14 8C14 4.68629 11.3137 2 8 2C4.68629 2 2 4.68629 2 8C2 11.3137 4.68629 14 8 14ZM7 5.5C7 4.94772 7.44772 4.5 8 4.5C8.55228 4.5 9 4.94772 9 5.5C9 6.05228 8.55228 6.5 8 6.5C7.44772 6.5 7 6.05228 7 5.5ZM7.25 7C7.25 7.39155 7.15179 7.80051 7.02239 8.3181L7.01328 8.35451C6.89429 8.8301 6.75 9.40678 6.75 10C6.75 10.4552 6.92952 10.8587 7.25909 11.1362C7.57157 11.3993 7.95871 11.5 8.3125 11.5C9.01186 11.5 9.78414 11.1088 10.1708 10.3354L8.82918 9.66459C8.71586 9.89122 8.48814 10 8.3125 10C8.28509 10 8.26461 9.99739 8.25001 9.99435C8.25095 9.60451 8.34883 9.197 8.47761 8.6819L8.48672 8.64549C8.60571 8.16991 8.75 7.59322 8.75 7H7.25Z"/>
</svg>
